<svg width="24" height="24" viewBox="0 0 24 24" xmlns="http://www.w3.org/2000/svg" fill="currentColor"><path fill-rule="evenodd" clip-rule="evenodd" d="M4.37751 4.51007C4.73952 4.45014 5.09174 4.66094 5.20999 5.0083L6.70999 9.41455C6.81778 9.73118 6.70287 10.0809 6.4283 10.2719C6.15374 10.4629 5.78587 10.449 5.52649 10.2379C3.87865 8.89633 3.75 7.12841 3.75 5.25C3.75 4.88306 4.0155 4.57 4.37751 4.51007ZM19.6201 4.50968C19.9832 4.56861 20.25 4.88216 20.25 5.25C20.25 7.11576 20.1257 8.98653 18.4735 10.3316C18.2148 10.5422 17.8481 10.5567 17.5737 10.367C17.2992 10.1774 17.183 9.8293 17.2885 9.51283L18.7885 5.01283C18.9048 4.66386 19.257 4.45076 19.6201 4.50968ZM12 8.25C12.4142 8.25 12.75 8.58579 12.75 9V21C12.75 21.4142 12.4142 21.75 12 21.75C11.5858 21.75 11.25 21.4142 11.25 21V9C11.25 8.58579 11.5858 8.25 12 8.25ZM1.5 13.5061C1.5 13.0919 1.83579 12.7561 2.25 12.7561H6C6.41421 12.7561 6.75 13.0919 6.75 13.5061C6.75 13.9203 6.41421 14.2561 6 14.2561H2.25C1.83579 14.2561 1.5 13.9203 1.5 13.5061ZM17.25 13.5061C17.25 13.0919 17.5858 12.7561 18 12.7561H21.75C22.1642 12.7561 22.5 13.0919 22.5 13.5061C22.5 13.9203 22.1642 14.2561 21.75 14.2561H18C17.5858 14.2561 17.25 13.9203 17.25 13.5061ZM7.13327 17.14C7.40898 17.3672 7.48611 17.7574 7.31759 18.0725L5.16134 22.1037C4.9991 22.4071 4.65132 22.5611 4.31766 22.4775C3.984 22.3939 3.75 22.094 3.75 21.75C3.75 20.6971 3.97811 19.832 4.42193 19.0688C4.85773 18.3192 5.47635 17.7122 6.18274 17.1371C6.45982 16.9116 6.85756 16.9128 7.13327 17.14ZM16.8667 17.14C17.1424 16.9128 17.5402 16.9116 17.8173 17.1371C18.5237 17.7123 19.1423 18.3194 19.5781 19.069C20.0219 19.8323 20.25 20.6974 20.25 21.75C20.25 22.094 20.016 22.3939 19.6823 22.4775C19.3487 22.5611 19.0009 22.4071 18.8387 22.1037L16.6824 18.0725C16.5139 17.7574 16.591 17.3672 16.8667 17.14Z"/><path fill-rule="evenodd" clip-rule="evenodd" d="M8.18588 7.72198C7.29412 8.33185 6.75 9.22957 6.75 10.4967V15C6.75 17.8858 9.11421 20.25 12 20.25C14.8858 20.25 17.25 17.8858 17.25 15V10.4967C17.25 9.08901 16.6937 8.20476 15.8265 7.63656C14.9117 7.03724 13.5793 6.74672 12 6.74672C10.4454 6.74672 9.10946 7.09035 8.18588 7.72198ZM7.33912 6.48384C8.59054 5.62801 10.2546 5.24672 12 5.24672C13.7207 5.24672 15.3883 5.5562 16.6485 6.38187C17.9563 7.23867 18.75 8.60442 18.75 10.4967V15C18.75 18.7142 15.7142 21.75 12 21.75C8.28579 21.75 5.25 18.7142 5.25 15V10.4967C5.25 8.71371 6.05588 7.36143 7.33912 6.48384Z"/><path fill-rule="evenodd" clip-rule="evenodd" d="M11.9882 1.5L11.9902 1.5H12.0098L12.0118 1.5C13.2012 1.50312 14.341 1.97698 15.182 2.81801C16.023 3.65903 16.4969 4.79881 16.5 5.98819C16.5 5.99867 16.4998 6.00915 16.4994 6.01962C16.4869 6.33782 16.4185 6.65134 16.2973 6.94584C16.1397 7.3289 15.7014 7.51166 15.3184 7.35406C14.9353 7.19645 14.7526 6.75815 14.9102 6.3751C14.9625 6.24787 14.9928 6.11271 14.9999 5.97538C14.9935 5.18851 14.6781 4.4354 14.1213 3.87867C13.5609 3.3182 12.8014 3.00232 12.0088 3H11.9912C11.1986 3.00232 10.4391 3.3182 9.87867 3.87867C9.32283 4.4345 9.00756 5.18607 9.00012 5.97156C9.01032 6.13558 9.04653 6.29697 9.10743 6.44969C9.26086 6.83444 9.07334 7.27072 8.68859 7.42415C8.30384 7.57758 7.86756 7.39006 7.71413 7.00531C7.58973 6.69336 7.5177 6.36301 7.50093 6.02759C7.50028 6.01447 7.49997 6.00133 7.5 5.98819C7.50312 4.79881 7.97698 3.65903 8.81801 2.81801C9.65903 1.97698 10.7988 1.50312 11.9882 1.5Z"/></svg>