<svg width="24" height="24" viewBox="0 0 24 24" xmlns="http://www.w3.org/2000/svg" fill="currentColor"><path fill-rule="evenodd" clip-rule="evenodd" d="M11.3558 11.5155C11.7138 11.1576 12.2941 11.1576 12.6521 11.5155L16.3184 15.1819C16.6764 15.5398 16.6764 16.1202 16.3184 16.4781C15.9605 16.8361 15.3801 16.8361 15.0222 16.4781L12.004 13.4599L8.98573 16.4781C8.62778 16.8361 8.04742 16.8361 7.68947 16.4781C7.33152 16.1202 7.33152 15.5398 7.68947 15.1819L11.3558 11.5155Z"/><path fill-rule="evenodd" clip-rule="evenodd" d="M12.004 11.247C12.5102 11.247 12.9205 11.6574 12.9205 12.1636V19C12.9205 19.5062 12.5062 20 12 20C11.4938 20 11.0874 19.5062 11.0874 19V15.4623V12.1636C11.0874 11.6574 11.4977 11.247 12.004 11.247Z"/><path fill-rule="evenodd" clip-rule="evenodd" d="M8.94557 3.00559C10.1917 2.95968 11.4319 3.19686 12.5732 3.69928C13.7144 4.20171 14.7269 4.95632 15.5345 5.90637C16.1866 6.67348 16.6915 7.55191 17.026 8.49728H17.5035C18.7253 8.49809 19.9127 8.90577 20.8771 9.65597C21.8416 10.4062 22.5287 11.4562 22.8301 12.6403C23.1315 13.8244 23.0299 15.0751 22.5415 16.1951C22.0531 17.3151 21.2057 18.2406 20.1329 18.8254C19.6884 19.0677 19.1317 18.9038 18.8894 18.4594C18.6471 18.0149 18.8109 17.4582 19.2554 17.2159C19.9706 16.826 20.5356 16.209 20.8612 15.4623C21.1868 14.7157 21.2545 13.8819 21.0535 13.0925C20.8526 12.3031 20.3945 11.6031 19.7516 11.1029C19.1086 10.6028 18.3174 10.331 17.5029 10.3305H16.3486C15.9307 10.3305 15.5658 10.0479 15.4612 9.6433C15.2184 8.70433 14.766 7.83262 14.1378 7.09369C13.5097 6.35476 12.7222 5.76784 11.8345 5.37706C10.9469 4.98629 9.98225 4.80182 9.01307 4.83753C8.04388 4.87324 7.09541 5.12819 6.23894 5.58323C5.38248 6.03827 4.64031 6.68154 4.06824 7.46469C3.49618 8.24784 3.10909 9.15049 2.93609 10.1048C2.76308 11.0591 2.80867 12.0401 3.06941 12.9743C3.33015 13.9084 3.79926 14.7713 4.44149 15.498C4.7767 15.8773 4.74094 16.4566 4.36161 16.7918C3.98229 17.127 3.40304 17.0913 3.06782 16.7119C2.24211 15.7776 1.63896 14.6682 1.30372 13.4671C0.968484 12.2661 0.909877 11.0047 1.13231 9.77777C1.35474 8.55083 1.85242 7.39028 2.58794 6.38337C3.32346 5.37646 4.27767 4.5494 5.37884 3.96435C6.48001 3.37931 7.69948 3.05151 8.94557 3.00559Z"/><path fill-rule="evenodd" clip-rule="evenodd" d="M11.3558 11.5155C11.7138 11.1576 12.2941 11.1576 12.6521 11.5155L16.3184 15.1819C16.6764 15.5398 16.6764 16.1202 16.3184 16.4781C15.9605 16.8361 15.3801 16.8361 15.0222 16.4781L12.004 13.4599L8.98573 16.4781C8.62778 16.8361 8.04742 16.8361 7.68947 16.4781C7.33152 16.1202 7.33152 15.5398 7.68947 15.1819L11.3558 11.5155Z"/></svg>