<svg width="24" height="24" viewBox="0 0 24 24" xmlns="http://www.w3.org/2000/svg" fill="currentColor"><path d="M0.822881 21.7273L2.30102 23.205C3.11445 24 4.0406 23.9344 4.86388 23.0271L14.6567 12.3647C15.0587 12.6454 15.4325 12.636 15.891 12.5426L16.8917 12.3369L17.556 13.0011L17.5089 13.4966C17.4437 14.0109 17.5933 14.4039 18.0703 14.8809L18.8559 15.657C19.3329 16.1434 19.9689 16.1713 20.427 15.7131L23.5419 12.5987C24 12.1401 23.9722 11.5136 23.4947 11.0271L22.7092 10.2416C22.2326 9.76458 21.8302 9.59615 21.3249 9.67115L20.82 9.72686L20.184 9.09129L20.4647 7.99672C20.5955 7.45457 20.4553 7.01486 19.866 6.435L17.556 4.134C14.1605 0.757719 9.81174 0.860575 6.83745 3.86272C6.4256 4.27415 6.38831 4.83557 6.65017 5.247C6.86531 5.60272 7.32345 5.81743 7.95002 5.65843C9.39988 5.29415 10.8497 5.406 12.2713 6.36943L11.6726 7.88486C11.448 8.44586 11.4669 8.904 11.6915 9.32486L1.00074 19.1649C0.102881 19.9963 -0.000404358 20.904 0.822881 21.7273ZM8.32417 4.23729C10.8776 2.32886 14.0576 2.63743 16.3586 4.93843L18.8743 7.43572C19.0989 7.66029 19.1272 7.83772 19.0616 8.11843L18.7063 9.615L20.2119 11.121L21.129 11.0366C21.3999 11.0087 21.4839 11.0271 21.7085 11.2423L22.2977 11.841L19.6697 14.4784L19.071 13.8801C18.8559 13.665 18.837 13.5806 18.8653 13.3093L18.9493 12.3836L17.4532 10.887L15.9005 11.1861C15.6292 11.2423 15.489 11.2423 15.255 11.0087L13.1786 8.92286C12.954 8.69829 12.9257 8.56715 13.0475 8.268L13.9646 6.07929C12.4303 4.611 10.4006 3.79715 8.44588 4.42415C8.36188 4.452 8.30574 4.43315 8.27745 4.39586C8.2496 4.34915 8.24917 4.30243 8.32417 4.23729ZM2.03917 21.0536C1.56217 20.5766 1.7306 20.2864 2.04817 19.9963L12.552 10.3063L13.7212 11.4849L4.00288 21.9523C3.71274 22.2703 3.34802 22.3637 2.95502 21.9801L2.03917 21.0536Z" stroke="black" stroke-width="0.5"/></svg>