<svg width="24" height="24" viewBox="0 0 24 24" xmlns="http://www.w3.org/2000/svg" fill="currentColor"><path fill-rule="evenodd" clip-rule="evenodd" d="M13.5093 0.0826934C13.9165 0.259462 14.1585 0.683531 14.1034 1.12403L13.1328 8.88889H22C22.388 8.88889 22.741 9.11335 22.9056 9.46473C23.0702 9.81611 23.0166 10.231 22.7682 10.5291L11.6571 23.8624C11.3729 24.2034 10.8979 24.3163 10.4907 24.1395C10.0835 23.9628 9.84156 23.5387 9.89662 23.0982L10.8672 15.3333H2.00001C1.61199 15.3333 1.259 15.1089 1.09442 14.7575C0.929843 14.4061 0.983388 13.9912 1.23179 13.6931L12.3429 0.359811C12.6271 0.0187764 13.1021 -0.0940754 13.5093 0.0826934ZM4.13505 13.3333H12C12.2868 13.3333 12.5599 13.4565 12.7497 13.6715C12.9395 13.8866 13.0279 14.1727 12.9923 14.4574L12.3042 19.9618L19.865 10.8889H12C11.7132 10.8889 11.4402 10.7657 11.2503 10.5507C11.0605 10.3357 10.9722 10.0495 11.0077 9.76485L11.6958 4.26045L4.13505 13.3333Z"/></svg>