<svg width="24" height="24" viewBox="0 0 24 24" xmlns="http://www.w3.org/2000/svg" fill="currentColor"><path d="M12 23C5.92455 23 1 18.0754 1 12C1 5.92455 5.92455 1 12 1C18.0755 1 23 5.92455 23 12C23 18.0754 18.0755 23 12 23V23ZM12 20.8005C16.8602 20.8005 20.8005 16.8602 20.8005 12C20.8005 7.1398 16.8602 3.1995 12 3.1995C7.1398 3.1995 3.1995 7.1398 3.1995 12C3.1995 16.8602 7.1398 20.8005 12 20.8005ZM14.2003 9.79967H16.4007V14.1995H14.2003V9.79967ZM7.60016 9.79967H9.80049V14.1995H7.60016V9.79967Z"/></svg>