<svg width="24" height="24" viewBox="0 0 24 24" xmlns="http://www.w3.org/2000/svg" fill="currentColor"><path fill-rule="evenodd" clip-rule="evenodd" d="M0.812556 11.0214C3.89579 6.60184 7.91944 4.25 11.9841 4.25C16.7484 4.25 20.8257 7.34985 23.2199 11.0478L23.2214 11.05C23.4039 11.3335 23.5009 11.6636 23.5009 12.0007C23.5009 12.3372 23.4043 12.6665 23.2225 12.9496C20.8292 16.6966 16.7774 19.75 11.9841 19.75C7.1402 19.75 3.16533 16.702 0.778412 12.9666C0.591764 12.6766 0.494962 12.3379 0.500202 11.993C0.505458 11.647 0.613138 11.3104 0.809636 11.0256L0.812546 11.0214L0.812556 11.0214ZM2.55153 12.0256C4.70331 15.3168 8.08344 17.75 11.9841 17.75C15.8436 17.75 19.2985 15.3015 21.4539 12.0017C19.2887 8.73373 15.8062 6.25 11.9841 6.25C8.77965 6.25 5.35105 8.08376 2.55153 12.0256ZM12 9.25C10.4812 9.25 9.25002 10.4812 9.25002 12C9.25002 13.5188 10.4812 14.75 12 14.75C13.5188 14.75 14.75 13.5188 14.75 12C14.75 10.4812 13.5188 9.25 12 9.25ZM7.25002 12C7.25002 9.37665 9.37667 7.25 12 7.25C14.6234 7.25 16.75 9.37665 16.75 12C16.75 14.6234 14.6234 16.75 12 16.75C9.37667 16.75 7.25002 14.6234 7.25002 12Z"/></svg>