<svg width="24" height="24" viewBox="0 0 24 24" xmlns="http://www.w3.org/2000/svg" fill="currentColor"><path fill-rule="evenodd" clip-rule="evenodd" d="M3.93333 3.83486C3.6416 3.83486 3.36181 3.95085 3.15552 4.15731C2.94923 4.36378 2.83333 4.6438 2.83333 4.93578V19.0642C2.83333 19.3562 2.94923 19.6362 3.15552 19.8427C3.36181 20.0491 3.6416 20.1651 3.93333 20.1651H20.0667C20.3584 20.1651 20.6382 20.0491 20.8445 19.8427C21.0508 19.6362 21.1667 19.3562 21.1667 19.0642V7.9633C21.1667 7.67132 21.0508 7.3913 20.8445 7.18484C20.6382 6.97837 20.3584 6.86239 20.0667 6.86239H10.9917C10.6852 6.86239 10.399 6.70908 10.229 6.45385L8.48441 3.83486H3.93333ZM1.85915 2.85987C2.40926 2.3093 3.15537 2 3.93333 2H8.975C9.28149 2 9.5677 2.1533 9.73771 2.40853L11.4823 5.02752H20.0667C20.8446 5.02752 21.5907 5.33683 22.1408 5.88739C22.691 6.43796 23 7.18468 23 7.9633V19.0642C23 19.8428 22.691 20.5896 22.1408 21.1401C21.5907 21.6907 20.8446 22 20.0667 22H3.93333C3.15536 22 2.40926 21.6907 1.85915 21.1401C1.30905 20.5896 1 19.8428 1 19.0642V4.93578C1 4.15716 1.30905 3.41044 1.85915 2.85987Z"/></svg>