<svg width="24" height="24" viewBox="0 0 24 24" xmlns="http://www.w3.org/2000/svg" fill="currentColor"><path fill-rule="evenodd" clip-rule="evenodd" d="M4 2H14C14.5523 2 15 2.44772 15 3V7.5H17V3C17 1.34315 15.6569 0 14 0H4C2.34315 0 1 1.34315 1 3V21C1 22.6569 2.34315 24 4 24H14C15.6569 24 17 22.6569 17 21V20H15V21C15 21.5523 14.5523 22 14 22H4C3.44772 22 3 21.5523 3 21V3C3 2.44772 3.44772 2 4 2Z"/><path fill-rule="evenodd" clip-rule="evenodd" d="M5 4C5 3.44772 5.44772 3 6 3H12C12.5523 3 13 3.44772 13 4C13 4.55228 12.5523 5 12 5H6C5.44772 5 5 4.55228 5 4Z"/><path fill-rule="evenodd" clip-rule="evenodd" d="M21.9211 16.4643C21.9211 13.2097 19.2701 10.5714 16 10.5714C12.7299 10.5714 10.0789 13.2097 10.0789 16.4643H8.5C8.5 12.3419 11.8579 9 16 9C20.1421 9 23.5 12.3419 23.5 16.4643H21.9211Z"/><path fill-rule="evenodd" clip-rule="evenodd" d="M15.8663 13.5357C14.7762 13.5357 13.8926 14.4152 13.8926 15.5C13.8926 16.5848 14.7762 17.4643 15.8663 17.4643C16.9563 17.4643 17.84 16.5848 17.84 15.5C17.84 14.4152 16.9563 13.5357 15.8663 13.5357ZM12.3136 15.5C12.3136 13.5473 13.9042 11.9643 15.8663 11.9643C17.8283 11.9643 19.4189 13.5473 19.4189 15.5C19.4189 17.4527 17.8283 19.0357 15.8663 19.0357C13.9042 19.0357 12.3136 17.4527 12.3136 15.5Z"/></svg>