<svg width="24" height="24" viewBox="0 0 24 24" xmlns="http://www.w3.org/2000/svg" fill="currentColor"><path fill-rule="evenodd" clip-rule="evenodd" d="M20.1723 6.40704V2.29303H21.707V7.6638L20.9397 8.43106H15.5682V6.89655H18.6376C17.6056 5.5212 16.1414 4.53235 14.48 4.08862C12.8186 3.6449 11.0562 3.77204 9.47574 4.44964C7.89525 5.12723 6.58819 6.31601 5.76428 7.82525C4.94037 9.33449 4.64735 11.0767 4.93225 12.7724C5.21714 14.4681 6.06343 16.0189 7.33534 17.1761C8.60725 18.3333 10.2311 19.0298 11.9462 19.1538C13.6614 19.2779 15.3685 18.8222 16.7937 17.86C18.2189 16.8979 19.2796 15.4849 19.8056 13.8479L21.2697 14.3113C20.6326 16.2979 19.3396 18.0093 17.6025 19.165C15.8655 20.3208 13.7873 20.8524 11.7086 20.6729C9.6298 20.4933 7.67366 19.6131 6.1606 18.1766C4.64755 16.74 3.66729 14.8323 3.38042 12.7659C3.09354 10.6994 3.51706 8.59686 4.5816 6.80258C5.64613 5.00829 7.28856 3.62869 9.23981 2.88978C11.1911 2.15088 13.3354 2.09647 15.3217 2.73549C17.3079 3.3745 19.0182 4.66905 20.1723 6.40704Z"/><path fill-rule="evenodd" clip-rule="evenodd" d="M15.2319 3.01436C13.3089 2.39567 11.2327 2.44835 9.34356 3.16375C7.45437 3.87915 5.8642 5.21486 4.83354 6.95205C3.80288 8.68924 3.39284 10.7249 3.67059 12.7256C3.94833 14.7263 4.89739 16.5733 6.36231 17.9641C7.82723 19.355 9.72113 20.2071 11.7338 20.381C13.7464 20.5549 15.7584 20.0401 17.4402 18.9211C19.0403 17.8565 20.2512 16.305 20.8963 14.5004L19.9901 14.2136C19.4171 15.7957 18.3565 17.1584 16.9577 18.1028C15.4781 19.1018 13.7058 19.5748 11.9251 19.446C10.1445 19.3173 8.45867 18.5942 7.1382 17.3928C5.81773 16.1914 4.93912 14.5814 4.64334 12.8209C4.34757 11.0605 4.65177 9.25175 5.50715 7.68488C6.36252 6.11801 7.71948 4.88385 9.36031 4.18039C11.0011 3.47692 12.8307 3.34493 14.5556 3.80559C16.2804 4.26625 17.8005 5.29286 18.872 6.72072L19.2237 7.1895H15.8612V8.13811H20.8184L21.4141 7.54245V2.58598H20.4653V7.37773L19.9283 6.56911C18.8109 4.88641 17.155 3.63305 15.2319 3.01436ZM9.13606 2.61582C11.1494 1.8534 13.362 1.79727 15.4114 2.45661C17.1719 3.02302 18.7223 4.08856 19.8794 5.51453V2.00008H22V7.78516L21.061 8.72401H15.2753V6.6036H18.0205C17.0631 5.52456 15.8068 4.7462 14.4044 4.37165C12.8064 3.94487 11.1113 4.06716 9.59118 4.71889C8.07101 5.37062 6.81386 6.51401 6.02141 7.96562C5.22896 9.41723 4.94713 11.0929 5.22115 12.7238C5.49516 14.3548 6.30914 15.8464 7.53249 16.9594C8.75584 18.0724 10.3177 18.7423 11.9674 18.8616C13.6171 18.9809 15.259 18.5427 16.6298 17.6172C18.0006 16.6918 19.0208 15.3328 19.5266 13.7583L19.6159 13.4805L21.6384 14.1207L21.5486 14.4007C20.8912 16.4506 19.5571 18.2164 17.7648 19.4089C15.9725 20.6015 13.8282 21.15 11.6833 20.9647C9.53846 20.7794 7.52009 19.8713 5.9589 18.389C4.3977 16.9068 3.38625 14.9383 3.09025 12.8062C2.79425 10.674 3.23124 8.50448 4.32965 6.6531C5.42806 4.80172 7.12274 3.37823 9.13606 2.61582Z"/></svg>