<svg width="24" height="24" viewBox="0 0 24 24" xmlns="http://www.w3.org/2000/svg" fill="currentColor"><path fill-rule="evenodd" clip-rule="evenodd" d="M10.5 2.80952C6.25267 2.80952 2.80952 6.25267 2.80952 10.5C2.80952 14.7473 6.25267 18.1905 10.5 18.1905C14.7473 18.1905 18.1905 14.7473 18.1905 10.5C18.1905 6.25267 14.7473 2.80952 10.5 2.80952ZM1 10.5C1 5.25329 5.25329 1 10.5 1C15.7467 1 20 5.25329 20 10.5C20 15.7467 15.7467 20 10.5 20C5.25329 20 1 15.7467 1 10.5Z"/><path fill-rule="evenodd" clip-rule="evenodd" d="M16.2511 16.2511C16.5858 15.9163 17.1285 15.9163 17.4632 16.2511L21.7489 20.5368C22.0837 20.8715 22.0837 21.4142 21.7489 21.7489C21.4142 22.0837 20.8715 22.0837 20.5368 21.7489L16.2511 17.4632C15.9163 17.1285 15.9163 16.5858 16.2511 16.2511Z"/></svg>