<svg width="24" height="24" viewBox="0 0 24 24" xmlns="http://www.w3.org/2000/svg" fill="currentColor"><path fill-rule="evenodd" clip-rule="evenodd" d="M6 1C6.55228 1 7 1.44772 7 2V15C7 15.5523 6.55228 16 6 16C5.44772 16 5 15.5523 5 15V2C5 1.44772 5.44772 1 6 1Z"/><path fill-rule="evenodd" clip-rule="evenodd" d="M18.5 3C17.1193 3 16 4.11929 16 5.5C16 6.88071 17.1193 8 18.5 8C19.8807 8 21 6.88071 21 5.5C21 4.11929 19.8807 3 18.5 3ZM14 5.5C14 3.01472 16.0147 1 18.5 1C20.9853 1 23 3.01472 23 5.5C23 7.98528 20.9853 10 18.5 10C16.0147 10 14 7.98528 14 5.5Z"/><path fill-rule="evenodd" clip-rule="evenodd" d="M5.5 16C4.11929 16 3 17.1193 3 18.5C3 19.8807 4.11929 21 5.5 21C6.88071 21 8 19.8807 8 18.5C8 17.1193 6.88071 16 5.5 16ZM1 18.5C1 16.0147 3.01472 14 5.5 14C7.98528 14 10 16.0147 10 18.5C10 20.9853 7.98528 23 5.5 23C3.01472 23 1 20.9853 1 18.5Z"/><path fill-rule="evenodd" clip-rule="evenodd" d="M19 8C19.5523 8 20 8.44772 20 9C20 11.9174 18.8411 14.7153 16.7782 16.7782C14.7153 18.8411 11.9174 20 9 20C8.44772 20 8 19.5523 8 19C8 18.4477 8.44772 18 9 18C11.3869 18 13.6761 17.0518 15.364 15.364C17.0518 13.6761 18 11.3869 18 9C18 8.44772 18.4477 8 19 8Z"/></svg>